<?xml version="1.0" standalone="no"?>
<!DOCTYPE svg PUBLIC "-//W3C//DTD SVG 20010904//EN"
 "http://www.w3.org/TR/2001/REC-SVG-20010904/DTD/svg10.dtd">
<svg version="1.0" xmlns="http://www.w3.org/2000/svg"
 width="300.000000pt" height="300.000000pt" viewBox="0 0 300.000000 300.000000"
 preserveAspectRatio="xMidYMid meet">
<metadata>
Created by potrace 1.11, written by Peter Selinger 2001-2013
</metadata>
<g transform="translate(0.000000,300.000000) scale(0.100000,-0.100000)"
fill="#000000" stroke="none">
<path d="M709 2973 c-6 -16 -22 -51 -35 -80 -13 -28 -24 -55 -24 -58 0 -4 -6
-21 -14 -38 -8 -18 -17 -43 -20 -57 -59 -258 -67 -344 -42 -473 14 -74 28
-100 24 -46 -1 18 -7 37 -13 41 -6 5 -4 8 6 8 11 0 19 -18 28 -67 7 -37 16
-72 20 -78 4 -5 13 -36 20 -67 7 -31 15 -58 19 -60 10 -4 65 -159 65 -183 0
-33 27 -127 53 -182 14 -28 24 -55 23 -60 -3 -10 9 -57 23 -98 22 -61 107
-235 115 -234 19 3 27 -2 15 -10 -10 -6 -9 -15 8 -44 12 -21 29 -37 37 -37 9
0 13 -6 10 -14 -6 -16 16 -40 27 -29 4 4 4 0 0 -10 -3 -9 -2 -17 2 -17 5 0 27
-29 48 -64 22 -36 44 -62 51 -59 7 2 21 -6 31 -19 11 -13 31 -28 46 -35 15 -7
35 -25 45 -40 10 -15 24 -35 32 -43 26 -27 -7 -22 -106 15 -131 49 -172 53
-248 21 -56 -23 -61 -24 -87 -8 -24 14 -33 14 -64 3 -31 -11 -37 -11 -47 3
-15 20 -57 10 -57 -14 0 -14 -9 -18 -46 -18 -65 -2 -83 -10 -90 -39 -8 -28 -4
-32 108 -119 35 -28 67 -43 93 -47 22 -3 72 -14 111 -25 40 -11 137 -25 225
-32 85 -7 162 -16 172 -22 19 -10 24 -48 5 -48 -6 0 -21 -8 -32 -19 -12 -10
-50 -28 -87 -40 -36 -12 -101 -42 -145 -67 -43 -25 -104 -60 -134 -77 -62 -34
-120 -76 -167 -120 -21 -20 -37 -27 -49 -23 -11 4 -30 -3 -53 -22 -20 -16 -51
-36 -68 -46 -18 -9 -40 -30 -48 -46 l-16 -30 906 0 c597 0 905 3 905 10 0 6
-7 10 -15 10 -9 0 -12 6 -9 15 4 9 0 15 -10 15 -9 0 -16 5 -16 10 0 6 9 10 19
10 10 0 22 7 25 16 4 10 2 13 -7 7 -6 -4 -22 -8 -35 -8 -19 -1 -22 3 -19 31 3
27 1 31 -16 26 -16 -4 -18 -1 -12 16 5 17 3 21 -9 16 -9 -3 -32 14 -63 47 -71
78 -193 196 -237 232 -22 18 -48 41 -58 51 -10 11 -18 16 -18 10 0 -5 -5 -1
-11 9 -5 9 -15 17 -20 17 -6 0 -30 14 -55 31 -24 16 -49 27 -56 23 -7 -5 -8
-3 -3 6 9 14 -58 80 -108 106 -25 13 -26 16 -12 30 8 8 20 12 26 8 8 -4 9 -3
5 4 -5 8 2 10 22 6 15 -3 48 0 73 7 l44 13 -45 6 c-25 3 -43 9 -40 14 3 5 -20
15 -50 23 -30 8 -62 16 -70 19 -8 2 -44 12 -80 22 -78 20 -89 28 -161 112
-127 148 -235 335 -274 475 -11 41 -19 117 -22 236 l-5 176 46 -1 c25 -1 46 2
46 6 0 3 14 11 31 17 27 9 30 9 19 -4 -10 -12 -9 -15 9 -15 12 0 21 6 21 15 0
11 5 12 25 5 16 -6 25 -6 25 0 0 6 3 9 8 8 4 -1 17 3 30 10 12 7 22 9 22 5 0
-4 8 1 17 12 15 19 15 19 9 -9 -7 -28 -7 -28 29 10 32 34 35 35 24 11 -7 -15
-16 -27 -21 -27 -4 0 -8 -9 -8 -20 0 -18 4 -16 30 13 17 19 30 42 30 51 0 9 4
16 9 16 5 0 7 -9 4 -20 -11 -40 6 -18 46 64 38 77 54 122 31 86 -24 -37 -7 14
20 62 28 48 28 50 6 26 -32 -36 -37 -35 -23 1 6 17 14 28 19 25 4 -3 5 2 2 10
-4 10 -1 16 9 16 15 0 84 97 75 105 -7 7 -44 -31 -64 -65 -10 -16 -24 -30 -31
-30 -7 0 -13 -6 -13 -14 0 -8 -5 -27 -11 -43 l-11 -28 -9 24 c-6 14 -6 27 -1
30 5 3 12 17 16 31 6 22 5 22 -10 -4 l-17 -30 -22 26 c-12 14 -32 29 -44 33
-13 4 -21 15 -21 28 -1 22 -1 22 -15 3 -14 -18 -15 -18 -15 -2 0 9 -4 15 -9
12 -5 -4 -12 0 -14 6 -4 10 -8 9 -17 -2 -10 -12 -11 -12 -5 5 4 11 9 27 12 35
3 8 -4 4 -16 -10 -26 -32 -28 -11 -1 23 26 32 26 45 0 22 -15 -14 -13 -2 14
62 19 44 44 99 55 121 12 23 21 48 21 57 0 8 11 33 25 55 14 22 25 42 25 45 0
3 10 16 21 28 40 42 75 108 48 91 -8 -5 -8 -1 0 14 6 12 17 24 24 28 7 5 6 0
-3 -11 -11 -14 -12 -19 -3 -22 15 -5 -4 -47 -44 -101 -14 -18 -23 -35 -20 -38
7 -7 25 18 81 113 29 49 61 101 72 118 10 16 13 26 7 22 -7 -5 -13 -4 -13 2 0
6 9 11 20 11 11 0 20 5 20 10 0 6 -101 10 -284 10 -258 0 -286 -2 -302 -17
-17 -17 -18 -17 -11 0 6 16 -4 17 -134 17 l-139 0 -11 -27z m814 -18 c-3 -9
-8 -14 -10 -11 -3 3 -2 9 2 15 9 16 15 13 8 -4z m-473 -20 c0 -2 -10 -9 -22
-15 -22 -11 -22 -10 -4 4 21 17 26 19 26 11z m-341 -39 c-13 -14 -26 -23 -28
-20 -6 6 30 44 42 44 5 0 -1 -11 -14 -24z m62 -83 c-12 -20 -14 -14 -5 12 4 9
9 14 11 11 3 -2 0 -13 -6 -23z m549 4 c0 -2 -10 -12 -22 -23 l-23 -19 19 23
c18 21 26 27 26 19z m74 -34 c-33 -49 -38 -53 -29 -23 8 25 34 58 47 59 4 1
-4 -16 -18 -36z m-34 -62 c0 -5 -6 -16 -14 -24 -8 -7 -19 -29 -24 -48 -5 -19
-35 -92 -65 -162 -31 -70 -55 -133 -53 -140 1 -7 1 -9 -1 -4 -3 4 -9 4 -14 1
-6 -3 -3 11 6 33 36 82 57 149 57 175 -1 36 21 89 47 112 15 14 18 22 10 27
-7 4 -8 12 -4 20 6 9 10 8 16 -7 7 -18 8 -18 15 4 6 21 24 31 24 13z m-122
-179 c-19 -44 -82 -161 -86 -158 -2 3 7 26 21 53 14 26 30 63 37 81 7 17 17
32 22 32 5 0 8 -3 6 -8z m-42 -134 c-18 -26 -22 -17 -5 14 6 11 13 17 16 15 3
-3 -2 -16 -11 -29z m-590 -48 c0 -38 -3 -64 -7 -58 -4 7 -9 4 -12 -8 -8 -28 0
65 8 104 4 17 9 32 10 32 1 0 2 -31 1 -70z m801 -230 c-1 -12 -7 -18 -14 -16
-7 3 -13 1 -13 -3 0 -5 6 -11 13 -14 6 -2 9 -8 5 -11 -3 -4 -16 2 -27 13 -14
14 -17 21 -7 21 7 0 19 7 26 15 16 20 19 19 17 -5z m-294 -179 c-6 -9 -32 35
-33 54 0 14 5 10 18 -15 10 -19 17 -37 15 -39z m227 63 c0 -18 -24 -43 -50
-52 l-30 -11 27 35 c24 30 53 45 53 28z m-460 -358 c0 -26 -6 -18 -14 19 -5
22 -4 26 4 15 5 -8 10 -24 10 -34z m49 -138 c1 -15 6 -30 11 -33 6 -3 10 -12
9 -18 -1 -30 -34 41 -36 77 -1 31 1 36 7 21 5 -11 9 -32 9 -47z m-44 2 c3 -5
1 -10 -4 -10 -6 0 -11 5 -11 10 0 6 2 10 4 10 3 0 8 -4 11 -10z m34 -95 c0 -5
-6 -1 -14 9 -8 11 -15 27 -15 35 1 17 29 -26 29 -44z m31 10 c0 -8 -2 -15 -4
-15 -2 0 -6 7 -10 15 -3 8 -1 15 4 15 6 0 10 -7 10 -15z m-10 -99 c0 -6 -7 -1
-15 10 -8 10 -14 26 -14 34 0 16 28 -28 29 -44z m48 5 c10 -29 10 -32 -3 -21
-8 7 -15 24 -15 38 0 31 3 27 18 -17z m32 -95 c0 -6 7 -24 15 -40 9 -16 14
-31 12 -32 -2 -2 -10 8 -18 24 -8 15 -20 33 -26 40 -7 7 -13 20 -13 29 0 13 3
13 15 3 8 -7 15 -18 15 -24z m-275 -395 c3 -5 1 -12 -5 -16 -5 -3 -10 1 -10 9
0 18 6 21 15 7z"/>
<path d="M1279 2604 c-12 -25 -19 -48 -16 -50 2 -2 14 18 25 46 26 63 18 66
-9 4z"/>
<path d="M1650 2985 c-7 -9 -10 -18 -7 -21 3 -3 10 4 17 15 13 25 8 27 -10 6z"/>
<path d="M1710 2990 c0 -5 -6 -7 -14 -4 -9 3 -20 -4 -27 -18 -11 -21 -11 -22
5 -9 32 26 25 5 -10 -29 -19 -19 -59 -67 -89 -107 -31 -39 -61 -73 -67 -75 -8
-3 -8 -7 -2 -11 6 -3 26 14 45 37 19 24 67 80 107 125 69 78 83 101 62 101 -5
0 -10 -4 -10 -10z"/>
<path d="M1828 2983 c-20 -24 -132 -192 -148 -223 -23 -45 6 -7 89 118 77 116
93 144 59 105z"/>
<path d="M2712 2850 c0 -148 10 -195 22 -102 5 41 10 183 7 235 -1 9 -7 17
-15 17 -11 0 -14 -29 -14 -150z"/>
<path d="M2750 2990 c0 -5 5 -10 10 -10 6 0 10 5 10 10 0 6 -4 10 -10 10 -5 0
-10 -4 -10 -10z"/>
<path d="M2865 2968 c10 -60 14 -112 21 -243 7 -146 23 -203 24 -85 0 66 -14
239 -26 328 -3 17 -9 32 -15 32 -6 0 -8 -14 -4 -32z"/>
<path d="M2904 2984 c9 -23 16 -91 26 -244 5 -74 12 -155 16 -179 4 -31 3 -42
-5 -37 -6 4 -12 19 -12 34 -1 17 -3 21 -6 9 -2 -9 -9 -15 -14 -12 -10 7 -12
-8 -10 -85 3 -66 -7 -62 -18 8 -5 33 -4 55 3 62 7 7 6 14 -2 22 -9 9 -12 8
-12 -7 0 -10 -3 -15 -7 -11 -4 4 -6 23 -4 42 1 21 -3 42 -12 52 -8 10 -18 49
-22 89 -4 40 -11 71 -15 68 -4 -3 -6 -26 -4 -51 3 -25 1 -43 -4 -40 -5 3 -12
63 -16 133 -6 122 -10 143 -21 131 -15 -15 -7 -330 9 -356 4 -7 3 -12 -2 -12
-8 0 -24 -105 -24 -157 0 -13 -4 -23 -8 -23 -4 0 -13 -13 -19 -30 -12 -37 -41
-41 -41 -6 0 39 -16 38 -17 -1 -1 -19 -6 -40 -12 -46 -6 -6 -11 -23 -11 -37 0
-30 -24 -69 -36 -57 -4 4 -2 7 4 7 7 0 12 16 12 39 0 22 4 42 9 45 11 7 22 46
13 46 -7 0 -18 -22 -47 -97 -10 -24 -21 -43 -26 -43 -5 0 -9 -13 -9 -29 0 -16
-9 -39 -20 -52 l-20 -24 10 29 c9 26 9 27 -5 16 -13 -11 -15 -9 -15 14 0 35
-15 25 -25 -16 l-8 -33 -7 35 c-4 19 -8 31 -9 25 -4 -27 -19 -37 -39 -26 -12
6 -23 7 -26 2 -7 -10 -90 -6 -191 9 -38 6 -77 11 -86 12 -14 2 -23 27 -10 29
52 6 76 11 92 19 13 8 19 7 19 0 0 -7 6 -8 19 -1 10 6 21 8 24 4 4 -3 13 0 22
7 10 8 15 9 15 1 0 -6 7 -11 15 -11 8 0 15 7 15 15 0 9 -6 12 -17 8 -12 -5
-14 -3 -8 8 7 11 6 12 -6 3 -8 -6 -21 -11 -29 -11 -8 -1 -24 -4 -35 -9 -18 -7
-19 -6 -5 11 14 17 14 18 -7 7 -12 -7 -25 -17 -28 -22 -3 -6 -11 -10 -16 -10
-6 0 -7 5 -4 10 11 18 -37 10 -68 -12 l-32 -22 25 29 25 29 -27 -17 c-18 -11
-28 -13 -28 -6 0 8 -4 8 -15 -1 -8 -7 -15 -8 -15 -2 0 13 -93 2 -102 -12 -5
-8 -8 -7 -8 2 0 10 -7 9 -29 -2 -16 -9 -31 -12 -34 -9 -4 3 -9 -2 -13 -11 -3
-9 -12 -16 -20 -16 -7 0 -18 -8 -23 -17 -6 -10 -11 -13 -11 -8 0 18 -40 -50
-40 -69 0 -18 1 -18 18 -3 10 10 26 17 35 17 9 0 19 5 22 10 4 6 11 8 16 4 5
-3 17 0 26 8 12 9 15 9 9 1 -4 -8 -2 -13 6 -13 7 -1 4 -6 -7 -13 -11 -7 -21
-24 -22 -40 -2 -24 1 -27 20 -22 16 5 18 4 8 -3 -13 -10 -18 -29 -24 -97 -2
-24 3 -31 26 -39 22 -8 31 -6 44 7 11 11 13 17 5 17 -19 0 -14 37 6 52 11 7
21 20 24 28 3 9 10 -4 17 -30 7 -25 19 -55 27 -67 13 -21 13 -22 -24 -16 -20
3 -34 3 -30 -2 6 -6 25 -9 92 -14 5 -1 6 -4 2 -8 -4 -4 37 -17 90 -30 74 -16
108 -20 142 -13 56 10 72 5 67 -23 l-4 -22 16 23 c15 21 41 33 28 12 -3 -5 -1
-10 5 -10 8 0 10 -9 7 -23 -4 -12 -2 -28 2 -36 6 -9 10 -2 13 23 2 20 -1 41
-7 47 -7 9 -6 10 4 4 7 -4 17 -2 21 5 10 16 62 -19 55 -37 -3 -7 -8 -21 -12
-30 -6 -16 -5 -16 10 -4 9 7 17 19 17 27 0 23 23 28 38 8 13 -18 14 -16 8 16
-5 28 -4 31 5 16 11 -17 8 -58 -6 -101 -4 -14 -2 -12 9 5 20 32 20 19 1 -27
-20 -47 -19 -50 5 -22 l19 24 1 -29 c0 -16 -12 -50 -27 -75 -17 -30 -21 -41
-10 -32 24 19 28 11 18 -30 -23 -89 -23 -93 -7 -80 20 17 21 2 1 -25 -8 -12
-13 -23 -11 -25 2 -2 0 -26 -4 -54 -5 -32 -4 -55 3 -63 7 -9 4 -19 -13 -37
-13 -14 -24 -34 -25 -45 -2 -21 -17 -41 -94 -123 -25 -26 -41 -47 -36 -47 6 0
-3 -11 -20 -25 -16 -13 -25 -24 -18 -25 6 0 15 4 18 10 3 5 16 15 28 22 19 9
20 9 11 -3 -6 -8 -12 -43 -13 -78 -1 -36 -4 -68 -7 -73 -3 -4 0 -8 6 -8 6 0 8
-4 5 -10 -3 -5 -3 -10 2 -10 14 1 43 27 43 38 0 6 4 14 10 17 6 4 7 -1 3 -12
-5 -14 -3 -15 7 -7 6 7 13 23 13 37 1 14 5 23 9 21 4 -2 10 1 14 7 4 8 3 9 -4
5 -26 -16 -9 13 29 49 33 32 39 35 29 15 -7 -14 -20 -31 -29 -38 -14 -12 -14
-13 2 -8 16 5 16 3 -3 -25 -12 -16 -19 -33 -16 -36 4 -4 13 2 21 14 8 11 24
23 36 26 12 3 18 3 13 -1 -5 -4 -21 -18 -36 -31 -24 -21 -30 -22 -44 -10 -16
13 -16 12 -6 -8 7 -12 9 -23 4 -26 -4 -2 -2 -2 5 -1 7 2 15 -1 18 -6 4 -6 2
-10 -2 -10 -5 0 -14 -9 -21 -20 -8 -13 5 -7 39 17 94 70 90 68 83 49 -3 -9
-10 -16 -16 -16 -16 0 -59 -50 -53 -61 7 -11 -23 -64 -32 -55 -3 3 2 17 11 30
22 34 7 39 -27 10 -20 -17 -24 -24 -12 -24 11 0 15 -7 13 -22 -2 -16 -9 -22
-22 -20 -10 2 -15 -1 -12 -6 3 -5 1 -33 -3 -63 -5 -30 -7 -57 -4 -62 6 -10 33
19 33 36 0 8 6 20 14 26 11 9 11 2 -1 -42 -13 -43 -13 -60 -2 -97 11 -41 13
-43 19 -20 3 14 2 28 -3 31 -11 8 1 66 19 95 8 11 16 48 19 82 2 34 8 69 13
78 13 23 6 -77 -14 -199 -15 -90 -14 -155 3 -211 3 -12 1 -16 -6 -12 -7 5 -11
-5 -12 -26 -1 -24 -3 -27 -6 -10 -3 13 -9 19 -15 16 -7 -5 -9 0 -6 14 7 25 -7
30 -16 7 -3 -8 -13 -15 -23 -15 -15 0 -15 2 3 16 17 14 17 15 1 10 -10 -3 -27
-1 -38 5 -20 10 -20 10 -4 -15 22 -33 9 -34 -21 -1 -29 31 -37 31 -69 -1 -22
-22 -32 -25 -63 -20 -26 4 -32 2 -22 -4 27 -17 63 -10 93 18 28 26 29 27 40 7
6 -11 17 -41 24 -67 18 -68 105 -205 166 -260 11 -10 20 -29 20 -43 l0 -25
199 0 200 0 -5 62 c-5 86 -63 329 -95 407 -15 35 -36 69 -47 75 -32 18 -33 23
-19 109 17 103 17 97 -5 97 -18 0 -39 -21 -67 -66 -10 -15 -14 -17 -25 -7 -18
18 -34 16 -19 -2 21 -26 4 -42 -62 -57 -35 -9 -72 -19 -83 -23 -20 -7 8 23 64
68 13 10 20 21 17 24 -3 4 -13 -2 -21 -13 -8 -10 -15 -15 -15 -11 0 4 32 40
70 80 68 70 96 89 44 31 -14 -16 -30 -38 -36 -49 -6 -11 9 3 33 30 24 28 70
77 101 109 32 33 58 62 58 66 0 4 25 35 55 70 51 59 73 102 43 84 -10 -6 -10
-5 -1 7 9 11 12 82 12 249 l0 235 -29 -32 c-36 -40 -45 -42 -26 -5 8 15 12 39
9 53 -3 17 4 38 21 64 14 21 26 50 26 64 0 23 -2 22 -19 -14 -26 -53 -26 -43
-1 23 18 47 20 76 20 315 0 144 -4 256 -8 250 -5 -7 -8 40 -9 104 0 80 -4 118
-12 121 -8 3 -9 26 -5 83 5 58 4 79 -5 79 -8 0 -10 11 -6 34 6 31 -7 153 -21
200 -4 12 -2 16 5 12 7 -5 9 -1 5 8 -3 9 -10 13 -15 10 -5 -3 -9 9 -9 25 0 17
-5 31 -11 31 -6 0 -8 -7 -5 -16z m-65 -381 c0 -35 -1 -36 -10 -14 -5 14 -7 31
-5 38 10 24 16 13 15 -24z m118 15 c-3 -8 -6 -5 -6 6 -1 11 2 17 5 13 3 -3 4
-12 1 -19z m-175 -140 c-5 -5 -8 12 -7 44 3 69 8 75 12 14 2 -27 0 -53 -5 -58z
m153 -38 c3 -5 1 -10 -4 -10 -6 0 -11 5 -11 10 0 6 2 10 4 10 3 0 8 -4 11 -10z
m-225 -149 c0 -6 -4 -13 -10 -16 -5 -3 -10 1 -10 9 0 9 5 16 10 16 6 0 10 -4
10 -9z m-508 -135 c96 -22 227 -77 221 -92 -6 -16 -23 -19 -23 -4 0 6 -8 10
-18 10 -10 0 -22 4 -27 9 -12 10 -136 49 -180 55 -16 3 -47 8 -67 11 -21 3
-38 10 -38 15 0 14 65 12 132 -4z m775 -38 c-3 -8 -6 -5 -6 6 -1 11 2 17 5 13
3 -3 4 -12 1 -19z m-755 -70 c-7 -7 -12 -8 -12 -2 0 6 3 14 7 17 3 4 9 5 12 2
2 -3 -1 -11 -7 -17z m234 6 c-5 -14 -4 -15 8 -5 11 9 15 6 20 -15 4 -14 5 -29
1 -32 -3 -3 -5 0 -5 7 0 7 -4 9 -10 6 -5 -3 -10 -1 -10 4 0 6 -7 11 -15 11
-17 0 -18 2 -9 24 3 9 11 16 16 16 6 0 7 -7 4 -16z m301 -56 c-3 -8 -6 -5 -6
6 -1 11 2 17 5 13 3 -3 4 -12 1 -19z m219 -49 c-8 -30 -19 -68 -24 -86 -6 -17
-8 -33 -6 -36 2 -2 -2 -17 -11 -33 -8 -16 -15 -37 -15 -46 0 -9 -4 -20 -10
-23 -5 -3 -10 -4 -10 -2 0 18 21 108 31 132 7 17 13 45 15 62 1 18 9 40 18 49
9 8 16 25 17 37 0 12 3 17 5 11 3 -6 -2 -35 -10 -65z m-606 -32 c0 -26 -74
-57 -135 -56 -48 1 -49 1 -23 13 42 18 86 65 99 104 l12 35 23 -39 c13 -21 24
-47 24 -57z m-480 33 c0 -5 -4 -10 -10 -10 -5 0 -10 5 -10 10 0 6 5 10 10 10
6 0 10 -4 10 -10z m614 -55 c11 -8 15 -15 10 -15 -6 0 -19 7 -30 15 -10 8 -14
14 -9 14 6 0 19 -6 29 -14z m-25 -29 c-3 -3 -11 5 -18 17 -13 21 -12 21 5 5
10 -10 16 -20 13 -22z m-58 1 c-10 -9 -11 -8 -5 6 3 10 9 15 12 12 3 -3 0 -11
-7 -18z m-46 3 c-3 -5 -14 -10 -23 -10 -15 0 -15 2 -2 10 20 13 33 13 25 0z
m370 -20 c-4 -12 -9 -19 -12 -17 -3 3 -2 15 2 27 4 12 9 19 12 17 3 -3 2 -15
-2 -27z m-138 -32 c-3 -8 -6 -5 -6 6 -1 11 2 17 5 13 3 -3 4 -12 1 -19z m10
-85 c-3 -10 -5 -4 -5 12 0 17 2 24 5 18 2 -7 2 -21 0 -30z m40 15 c-3 -8 -6
-5 -6 6 -1 11 2 17 5 13 3 -3 4 -12 1 -19z m0 -50 c-3 -8 -6 -5 -6 6 -1 11 2
17 5 13 3 -3 4 -12 1 -19z m254 -30 c-7 -19 -6 -31 4 -44 8 -11 15 -27 15 -36
0 -10 5 -18 11 -18 5 0 7 -5 4 -10 -4 -6 -11 -7 -17 -4 -6 4 -8 2 -4 -4 3 -6
2 -13 -3 -16 -5 -3 -7 -15 -4 -26 6 -21 -39 -70 -64 -70 -15 0 -14 3 27 65 36
53 43 87 25 111 -24 31 -17 110 7 86 5 -5 4 -20 -1 -34z m-311 -112 c0 -3 -4
-8 -10 -11 -5 -3 -10 -1 -10 4 0 6 5 11 10 11 6 0 10 -2 10 -4z m226 -113
c-10 -10 -19 5 -10 18 6 11 8 11 12 0 2 -7 1 -15 -2 -18z m67 -38 c-3 -9 -8
-14 -10 -11 -3 3 -2 9 2 15 9 16 15 13 8 -4z m2 -95 c-21 -22 -40 -38 -43 -36
-2 2 14 22 35 44 21 22 40 38 42 36 3 -2 -13 -22 -34 -44z m-345 -190 c0 -5
-5 -10 -11 -10 -5 0 -7 5 -4 10 3 6 8 10 11 10 2 0 4 -4 4 -10z m-42 -80 c-7
-10 -14 -17 -17 -15 -4 4 18 35 25 35 2 0 -1 -9 -8 -20z m-41 -40 c0 -16 -4
-30 -9 -30 -5 0 -6 5 -3 10 3 6 1 10 -4 10 -7 0 -7 7 1 20 7 11 13 20 14 20 0
0 1 -13 1 -30z m163 17 c0 -2 -10 -12 -22 -23 l-23 -19 19 23 c18 21 26 27 26
19z m-205 -107 c-9 -18 -19 -30 -21 -27 -3 2 3 20 13 40 10 19 19 31 21 27 2
-5 -4 -23 -13 -40z m125 -5 c-7 -8 -17 -15 -23 -15 -6 0 -2 7 9 15 25 19 30
19 14 0z m26 -53 c-18 -16 -18 -16 -6 6 6 13 14 21 18 18 3 -4 -2 -14 -12 -24z
m148 -520 c3 -5 -1 -9 -9 -9 -8 0 -15 4 -15 9 0 4 4 8 9 8 6 0 12 -4 15 -8z
m56 -53 c0 -6 -4 -7 -10 -4 -5 3 -10 11 -10 16 0 6 5 7 10 4 6 -3 10 -11 10
-16z m47 -31 c36 -41 38 -54 3 -27 -34 26 -49 49 -33 49 5 0 19 -10 30 -22z"/>
<path d="M2890 1495 c-7 -9 -11 -18 -8 -20 3 -3 11 1 18 10 7 9 11 18 8 20 -3
3 -11 -1 -18 -10z"/>
<path d="M1979 2933 c-13 -16 -12 -17 4 -4 9 7 17 15 17 17 0 8 -8 3 -21 -13z"/>
<path d="M1604 2905 c-38 -50 -23 -55 16 -5 17 22 27 40 21 40 -5 0 -22 -16
-37 -35z"/>
<path d="M1558 2913 c-9 -10 -21 -29 -28 -43 -7 -14 -8 -20 -4 -15 5 6 22 25
38 43 17 17 25 32 19 32 -5 0 -17 -8 -25 -17z"/>
<path d="M1912 2884 c-12 -18 -22 -37 -22 -41 0 -4 12 10 26 30 14 21 24 40
22 42 -2 2 -13 -12 -26 -31z"/>
<path d="M2086 2868 l-18 -33 21 25 c18 22 26 40 18 40 -1 0 -11 -15 -21 -32z"/>
<path d="M2105 2840 c-9 -16 -13 -30 -11 -30 3 0 12 14 21 30 9 17 13 30 11
30 -3 0 -12 -13 -21 -30z"/>
<path d="M2811 2853 c-1 -6 -4 -20 -7 -30 -5 -17 -5 -17 6 0 6 10 9 23 6 30
-3 9 -5 9 -5 0z"/>
<path d="M1550 2840 c-8 -5 -11 -12 -7 -16 4 -4 13 -2 19 4 15 15 7 24 -12 12z"/>
<path d="M1495 2814 c-22 -34 -14 -40 14 -10 12 13 18 27 13 30 -5 3 -17 -6
-27 -20z"/>
<path d="M2683 2755 c0 -38 2 -53 4 -32 2 20 2 52 0 70 -2 17 -4 1 -4 -38z"/>
<path d="M1824 2768 c-42 -59 -51 -78 -21 -46 14 15 27 24 30 20 2 -4 2 -2 1
5 -2 7 4 19 12 28 9 8 14 20 12 26 -2 6 -17 -9 -34 -33z"/>
<path d="M2843 2715 c0 -22 2 -30 4 -17 2 12 2 30 0 40 -3 9 -5 -1 -4 -23z"/>
<path d="M1739 2708 c-12 -23 -12 -23 10 -4 23 21 26 26 11 26 -5 0 -15 -10
-21 -22z"/>
<path d="M2621 2714 c0 -11 3 -14 6 -6 3 7 2 16 -1 19 -3 4 -6 -2 -5 -13z"/>
<path d="M1361 2662 c-17 -31 -13 -40 5 -14 9 13 14 26 11 29 -3 2 -10 -4 -16
-15z"/>
<path d="M1707 2663 c-4 -3 -7 -11 -7 -17 0 -6 5 -5 12 2 6 6 9 14 7 17 -3 3
-9 2 -12 -2z"/>
<path d="M2005 2639 c-4 -6 -5 -12 -2 -15 2 -3 7 2 10 11 7 17 1 20 -8 4z"/>
<path d="M1739 2635 c-1 -3 -2 -10 -3 -15 0 -6 -5 -14 -11 -18 -17 -12 -120
-164 -149 -219 -30 -59 -9 -35 40 45 27 42 67 102 89 132 53 70 58 80 46 80
-6 0 -12 -2 -12 -5z"/>
<path d="M1802 2575 c-12 -19 -20 -35 -17 -35 7 0 47 61 42 66 -2 3 -14 -11
-25 -31z"/>
<path d="M2671 2584 c0 -11 3 -14 6 -6 3 7 2 16 -1 19 -3 4 -6 -2 -5 -13z"/>
<path d="M1312 2530 c-18 -29 -15 -38 4 -12 9 13 14 25 12 27 -2 2 -9 -5 -16
-15z"/>
<path d="M2682 2530 c0 -14 2 -19 5 -12 2 6 2 18 0 25 -3 6 -5 1 -5 -13z"/>
<path d="M1612 2499 c-9 -17 -27 -47 -39 -66 -13 -18 -23 -39 -23 -46 0 -7 8
2 18 18 51 86 72 125 67 125 -3 0 -14 -14 -23 -31z"/>
<path d="M2683 2486 c4 -10 7 -24 7 -32 0 -9 4 -13 9 -10 11 7 3 44 -12 53 -7
4 -8 0 -4 -11z"/>
<path d="M2661 2444 c0 -11 3 -14 6 -6 3 7 2 16 -1 19 -3 4 -6 -2 -5 -13z"/>
<path d="M1266 2435 c-9 -26 -7 -32 5 -12 6 10 9 21 6 23 -2 3 -7 -2 -11 -11z"/>
<path d="M1500 2425 c-6 -15 -8 -30 -6 -33 3 -3 10 8 16 23 6 15 8 30 6 33 -3
3 -10 -8 -16 -23z"/>
<path d="M1690 2395 c-7 -9 -8 -15 -2 -15 5 0 12 7 16 15 3 8 4 15 2 15 -2 0
-9 -7 -16 -15z"/>
<path d="M1482 2350 c0 -14 2 -19 5 -12 2 6 2 18 0 25 -3 6 -5 1 -5 -13z"/>
<path d="M2427 2268 c-10 -5 -25 -7 -33 -4 -8 3 -14 0 -14 -8 0 -14 56 -10 66
6 9 15 1 18 -19 6z"/>
<path d="M2492 2263 c-8 -14 -9 -24 -2 -28 12 -7 24 18 18 37 -3 8 -9 5 -16
-9z"/>
<path d="M2467 2263 c-4 -3 -7 -13 -7 -22 1 -13 3 -13 11 2 11 19 8 33 -4 20z"/>
<path d="M2542 2250 c-6 -11 -12 -28 -12 -37 0 -12 5 -8 15 11 18 34 16 56 -3
26z"/>
<path d="M1407 1953 c-4 -3 -7 -11 -7 -17 0 -6 5 -5 12 2 6 6 9 14 7 17 -3 3
-9 2 -12 -2z"/>
<path d="M1383 1908 c-12 -16 -24 -48 -18 -48 2 0 11 14 20 30 16 31 15 40 -2
18z"/>
<path d="M2983 1638 c-23 -30 -24 -41 -2 -21 12 12 20 25 17 28 -3 3 -10 0
-15 -7z"/>
<path d="M1274 1301 c4 -6 12 -9 17 -6 5 4 9 1 9 -5 0 -7 -12 -9 -34 -5 -25 5
-35 3 -39 -10 -8 -19 14 -29 57 -27 78 5 263 0 300 -8 93 -21 98 -20 31 6 -38
14 -90 29 -115 31 -25 3 -48 10 -51 15 -3 5 -46 12 -94 15 -64 4 -86 2 -81 -6z"/>
<path d="M2521 1294 c-7 -8 -11 -17 -9 -20 3 -2 13 5 23 16 10 11 14 20 9 20
-5 -1 -15 -8 -23 -16z"/>
<path d="M1740 1195 c59 -29 97 -37 106 -24 8 14 -54 40 -109 45 l-52 6 55
-27z"/>
<path d="M1230 880 c0 -5 5 -10 11 -10 5 0 7 5 4 10 -3 6 -8 10 -11 10 -2 0
-4 -4 -4 -10z"/>
<path d="M2415 823 c-19 -21 -32 -39 -30 -41 6 -6 55 30 55 41 0 5 8 16 18 23
11 9 13 13 4 14 -7 0 -28 -17 -47 -37z"/>
<path d="M2380 825 c-7 -8 -8 -15 -2 -15 5 0 15 7 22 15 7 8 8 15 2 15 -5 0
-15 -7 -22 -15z"/>
<path d="M2440 777 c-18 -15 -53 -67 -44 -67 9 0 74 63 74 72 0 11 -13 9 -30
-5z"/>
<path d="M2380 745 c-8 -9 -8 -15 -2 -15 12 0 26 19 19 26 -2 2 -10 -2 -17
-11z"/>
<path d="M2432 715 c11 -12 -12 -47 -27 -41 -8 3 -17 0 -21 -6 -5 -7 -2 -8 6
-3 10 6 12 4 6 -11 -5 -10 -10 -39 -13 -64 l-4 -45 15 32 c54 117 58 131 43
139 -7 4 -9 4 -5 -1z"/>
<path d="M2905 700 c-3 -5 -1 -10 4 -10 6 0 11 5 11 10 0 6 -2 10 -4 10 -3 0
-8 -4 -11 -10z"/>
<path d="M2947 683 c-4 -3 -7 -15 -7 -25 0 -10 -7 -18 -15 -18 -23 0 -78 -37
-66 -45 6 -3 20 -3 31 0 13 4 22 1 26 -9 3 -9 10 -13 15 -10 5 3 7 10 4 15
-11 17 6 49 26 49 23 0 25 -13 4 -30 -17 -14 -20 -40 -6 -40 32 0 41 14 41 66
0 50 -2 54 -23 54 -13 0 -27 -3 -30 -7z"/>
<path d="M2421 592 c0 -8 -10 -27 -22 -43 -11 -16 -19 -34 -17 -40 2 -6 10 2
18 18 8 15 19 31 23 34 5 4 7 15 4 25 -3 11 -5 13 -6 6z"/>
<path d="M2456 559 c-8 -39 -8 -74 0 -67 6 7 16 98 10 98 -2 0 -6 -14 -10 -31z"/>
<path d="M2925 547 c-11 -7 -21 -13 -23 -13 -7 -3 22 -54 32 -55 6 -1 16 -2
21 -4 6 -1 14 -3 19 -3 5 -1 0 -12 -12 -24 -20 -22 -20 -25 -6 -78 8 -30 17
-68 20 -85 2 -16 8 -43 13 -60 9 -28 9 -27 10 18 1 26 -5 57 -11 68 -10 17
-10 23 0 26 8 3 12 34 12 103 0 88 -2 100 -19 110 -24 12 -31 12 -56 -3z m57
-132 c0 -5 -5 -11 -11 -13 -6 -2 -11 4 -11 13 0 9 5 15 11 13 6 -2 11 -8 11
-13z"/>
<path d="M2401 503 c-19 -29 -20 -35 -6 -29 9 3 23 6 31 6 8 0 14 4 14 10 0 5
-7 7 -16 3 -14 -5 -15 -3 -4 16 19 37 7 32 -19 -6z"/>
<path d="M391 514 c0 -11 3 -14 6 -6 3 7 2 16 -1 19 -3 4 -6 -2 -5 -13z"/>
<path d="M41 480 c0 -32 2 -40 9 -29 5 9 6 28 0 45 -8 27 -8 26 -9 -16z"/>
<path d="M80 499 c0 -16 5 -18 33 -12 42 8 42 8 2 20 -31 10 -35 9 -35 -8z"/>
<path d="M1864 491 c20 -22 26 -25 26 -13 0 4 -10 13 -22 21 -23 14 -23 14 -4
-8z"/>
<path d="M2475 490 c-3 -5 -1 -10 4 -10 6 0 11 5 11 10 0 6 -2 10 -4 10 -3 0
-8 -4 -11 -10z"/>
<path d="M1980 458 c0 -20 1 -20 13 -5 7 9 31 18 57 20 42 3 41 4 -12 5 -54 2
-58 0 -58 -20z"/>
<path d="M2000 450 c0 -5 5 -10 10 -10 6 0 10 5 10 10 0 6 -4 10 -10 10 -5 0
-10 -4 -10 -10z"/>
<path d="M2370 444 l-35 -13 33 2 c19 1 36 5 39 10 2 4 11 3 18 -3 8 -7 22
-10 32 -7 14 4 14 5 -4 6 -12 0 -25 6 -28 11 -7 12 -10 12 -55 -6z"/>
<path d="M2480 455 c0 -5 5 -17 10 -25 5 -8 10 -10 10 -5 0 6 -5 17 -10 25 -5
8 -10 11 -10 5z"/>
<path d="M2150 442 c0 -7 -4 -11 -8 -8 -4 2 -13 1 -20 -3 -9 -5 -7 -12 7 -25
24 -22 46 -16 54 13 3 13 1 19 -5 15 -6 -4 -14 0 -19 7 -7 11 -9 11 -9 1z m12
-34 c-9 -9 -15 -9 -24 0 -9 9 -7 12 12 12 19 0 21 -3 12 -12z"/>
<path d="M60 430 c0 -5 5 -10 10 -10 6 0 10 5 10 10 0 6 -4 10 -10 10 -5 0
-10 -4 -10 -10z"/>
<path d="M2320 405 c-8 -9 -8 -15 -2 -15 12 0 26 19 19 26 -2 2 -10 -2 -17
-11z"/>
<path d="M2238 393 c7 -3 16 -2 19 1 4 3 -2 6 -13 5 -11 0 -14 -3 -6 -6z"/>
<path d="M2073 373 c9 -2 23 -2 30 0 6 3 -1 5 -18 5 -16 0 -22 -2 -12 -5z"/>
<path d="M2190 370 c0 -5 5 -10 11 -10 5 0 7 5 4 10 -3 6 -8 10 -11 10 -2 0
-4 -4 -4 -10z"/>
<path d="M2160 353 c0 -12 5 -25 10 -28 13 -8 13 15 0 35 -8 12 -10 11 -10 -7z"/>
<path d="M30 323 c0 -5 4 -15 10 -23 11 -18 25 -7 17 15 -6 15 -27 21 -27 8z"/>
<path d="M2135 310 c-3 -5 -1 -10 4 -10 6 0 11 5 11 10 0 6 -2 10 -4 10 -3 0
-8 -4 -11 -10z"/>
<path d="M2243 295 c7 -14 16 -25 20 -25 9 0 -9 36 -22 44 -5 4 -4 -5 2 -19z"/>
<path d="M2090 286 c0 -8 5 -18 10 -21 6 -3 10 3 10 14 0 12 -4 21 -10 21 -5
0 -10 -6 -10 -14z"/>
<path d="M235 246 c-24 -10 -26 -13 -12 -19 9 -3 17 -3 17 2 0 4 10 7 21 7 12
-1 24 5 26 12 6 15 -13 15 -52 -2z"/>
<path d="M68 233 c-10 -13 -10 -17 0 -20 6 -3 12 -15 12 -28 0 -20 17 -35 40
-35 4 0 10 11 12 25 4 18 1 25 -11 25 -14 1 -13 2 2 11 10 6 24 8 31 6 13 -5
44 9 36 16 -3 2 -28 7 -57 10 -40 5 -54 2 -65 -10z"/>
<path d="M2180 231 c0 -6 4 -12 8 -15 5 -3 9 1 9 9 0 8 -4 15 -9 15 -4 0 -8
-4 -8 -9z"/>
<path d="M2240 230 c-13 -8 -12 -10 3 -10 9 0 17 5 17 10 0 12 -1 12 -20 0z"/>
<path d="M2150 219 c0 -5 5 -7 10 -4 6 3 10 8 10 11 0 2 -4 4 -10 4 -5 0 -10
-5 -10 -11z"/>
<path d="M2168 193 c6 -2 18 -2 25 0 6 3 1 5 -13 5 -14 0 -19 -2 -12 -5z"/>
<path d="M240 75 c0 -13 9 -16 43 -13 23 2 42 8 42 13 0 6 -19 11 -42 13 -34
3 -43 0 -43 -13z"/>
<path d="M0 61 c0 -12 6 -21 15 -21 8 0 15 4 15 9 0 5 -7 14 -15 21 -13 10
-15 9 -15 -9z"/>
<path d="M347 49 c7 -7 15 -10 18 -7 3 3 -2 9 -12 12 -14 6 -15 5 -6 -5z"/>
<path d="M68 33 c7 -3 16 -2 19 1 4 3 -2 6 -13 5 -11 0 -14 -3 -6 -6z"/>
<path d="M196 25 c4 -8 10 -12 15 -9 14 8 10 24 -6 24 -9 0 -12 -6 -9 -15z"/>
</g>
</svg>
